name D:\PhD\Datasets\SharingData_IBEC_VALDUCE\MO1_Healthy_0001.mot
datacolumns 46
datarows 7
range 2.51000000 2.57000000
endheader
                time	         pelvis_tilt	     pelvis_rotation	           pelvis_tx	           pelvis_ty	           pelvis_tz	       hip_flexion_r	     hip_adduction_r	      hip_rotation_r	        knee_angle_r	       ankle_angle_r	    subtalar_angle_r	         mtp_angle_r	       hip_flexion_l	     hip_adduction_l	      hip_rotation_l	        knee_angle_l	       ankle_angle_l	    subtalar_angle_l	         mtp_angle_l	    lumbar_extension	      lumbar_bending	     lumbar_rotation	          arm_flex_r	           arm_add_r	           arm_rot_r	        elbow_flex_r	           pro_sup_r	        wrist_flex_r	         wrist_dev_r	          arm_flex_l	           arm_add_l	           arm_rot_l	        elbow_flex_l	           pro_sup_l	        wrist_flex_l	         wrist_dev_l	          end_eff_tx	          end_eff_ty	          end_eff_tz	             goal_tx	             goal_ty	             goal_tz	            elbow_tx	            elbow_ty	            elbow_tz	
          2.51000000	          0.00000000	          0.00000000	        373.47022151	        474.71551778	        256.05673745	          0.00000000	          0.00000000	          0.00000000	          0.00000000	          0.00000000	          0.00000000	          0.00000000	          0.00000000	          0.00000000	          0.00000000	          0.00000000	          0.00000000	          0.00000000	          0.00000000	         -9.35097218	        -10.63892460	         16.49361038	         71.03740692	         -7.32237434	         30.66098595	         56.51459885	         82.68856049	          0.00000000	          0.00000000	          0.00000000	          0.00000000	          0.00000000	          0.00000000	          0.00000000	          0.00000000	          0.00000000	        832.66986890	        612.35528122	         23.73936586	        868.89524465	        671.61444920	       -165.28148422	        654.95317627	        467.98385380	        371.64528330	
          2.52000000	          0.00000000	          0.00000000	        374.47984393	        474.41104134	        254.33467759	          0.00000000	          0.00000000	          0.00000000	          0.00000000	          0.00000000	          0.00000000	          0.00000000	          0.00000000	          0.00000000	          0.00000000	          0.00000000	          0.00000000	          0.00000000	          0.00000000	         -9.38841438	        -10.95200634	         16.96246338	         71.38648987	         -7.40492916	         30.33090019	         56.35031891	         82.27352142	          0.00000000	          0.00000000	          0.00000000	          0.00000000	          0.00000000	          0.00000000	          0.00000000	          0.00000000	          0.00000000	        833.94131598	        614.46227772	         19.45258059	        868.90577391	        671.65316348	       -165.30041216	        657.36354422	        469.20149227	        367.78287632	
          2.53000000	          0.00000000	          0.00000000	        375.44046026	        474.05254003	        252.88772893	          0.00000000	          0.00000000	          0.00000000	          0.00000000	          0.00000000	          0.00000000	          0.00000000	          0.00000000	          0.00000000	          0.00000000	          0.00000000	          0.00000000	          0.00000000	          0.00000000	         -9.41114712	        -11.25871277	         17.30442238	         71.76177216	         -7.41648769	         30.05997276	         56.18159485	         82.56247711	          0.00000000	          0.00000000	          0.00000000	          0.00000000	          0.00000000	          0.00000000	          0.00000000	          0.00000000	          0.00000000	        835.05121514	        616.29863909	         15.19263638	        868.90926727	        671.68173930	       -165.30468624	        659.68420202	        470.32639217	        363.89383882	
          2.54000000	          0.00000000	          0.00000000	        376.36418111	        473.68612084	        251.25186595	          0.00000000	          0.00000000	          0.00000000	          0.00000000	          0.00000000	          0.00000000	          0.00000000	          0.00000000	          0.00000000	          0.00000000	          0.00000000	          0.00000000	          0.00000000	          0.00000000	         -9.05153847	        -11.56333256	         17.83051109	         71.66531372	         -7.45620680	         29.65006256	         56.07429123	         82.10569000	          0.00000000	          0.00000000	          0.00000000	          0.00000000	          0.00000000	          0.00000000	          0.00000000	          0.00000000	          0.00000000	        836.28962325	        618.43423236	         11.12686956	        868.91552650	        671.64842229	       -165.29180751	        662.04245609	        471.41898593	        359.97545480	
          2.55000000	          0.00000000	          0.00000000	        377.36980649	        473.31058765	        249.69033272	          0.00000000	          0.00000000	          0.00000000	          0.00000000	          0.00000000	          0.00000000	          0.00000000	          0.00000000	          0.00000000	          0.00000000	          0.00000000	          0.00000000	          0.00000000	          0.00000000	         -9.10703754	        -11.88765812	         18.25319862	         72.09302521	         -7.58104897	         29.30622864	         55.86526108	         82.13930511	          0.00000000	          0.00000000	          0.00000000	          0.00000000	          0.00000000	          0.00000000	          0.00000000	          0.00000000	          0.00000000	        837.44554142	        620.27880082	          6.94708406	        868.88703386	        671.64043584	       -165.31438594	        664.40457502	        472.49640099	        356.02230740	
          2.56000000	          0.00000000	          0.00000000	        378.30505387	        472.89643898	        248.18799271	          0.00000000	          0.00000000	          0.00000000	          0.00000000	          0.00000000	          0.00000000	          0.00000000	          0.00000000	          0.00000000	          0.00000000	          0.00000000	          0.00000000	          0.00000000	          0.00000000	         -9.05350113	        -12.02757359	         18.55177689	         72.29409790	         -7.62110710	         29.23656654	         55.78672791	         82.15412903	          0.00000000	          0.00000000	          0.00000000	          0.00000000	          0.00000000	          0.00000000	          0.00000000	          0.00000000	          0.00000000	        838.49659463	        622.15604051	          2.84944934	        868.90627651	        671.62265210	       -165.32987218	        666.69373317	        473.62401008	        352.26625797	
          2.57000000	          0.00000000	          0.00000000	        379.05160813	        472.21595105	        247.15223230	          0.00000000	          0.00000000	          0.00000000	          0.00000000	          0.00000000	          0.00000000	          0.00000000	          0.00000000	          0.00000000	          0.00000000	          0.00000000	          0.00000000	          0.00000000	          0.00000000	         -9.44820213	        -12.05982304	         18.44939804	         72.99504852	         -7.38398027	         29.39334106	         55.55025101	         82.06883240	          0.00000000	          0.00000000	          0.00000000	          0.00000000	          0.00000000	          0.00000000	          0.00000000	          0.00000000	          0.00000000	        839.53448072	        624.07173031	         -1.16480707	        868.91057555	        671.66380328	       -165.30900759	        668.93390172	        474.72199570	        348.51357155	
